REM DIRINDEX 1\2,1\3,1\4,1\5
REM DIRNAME folder01,folder02,folder03,folder04,folder05
TITLE ""
FILE "1800_131.mp3" MP3
  TRACK 01 AUDIO
    TITLE "2:cjc044_3893"
    INDEX 01 00:00:00
  TRACK 02 AUDIO
    TITLE "0:"
    INDEX 01 00:00:66
  TRACK 03 AUDIO
    TITLE "3:cjc044_3894"
    INDEX 01 00:01:54
  TRACK 04 AUDIO
    TITLE "0:"
    INDEX 01 00:03:06
  TRACK 05 AUDIO
    TITLE "4:cjc044_3895"
    INDEX 01 00:03:72
  TRACK 06 AUDIO
    TITLE "0:"
    INDEX 01 00:04:74
  TRACK 07 AUDIO
    TITLE "5:cjc044_3896"
    INDEX 01 00:05:57
  TRACK 08 AUDIO
    TITLE "0:"
    INDEX 01 00:09:36
  TRACK 09 AUDIO
    TITLE "2:cjc044_3897"
    INDEX 01 00:11:21
  TRACK 10 AUDIO
    TITLE "0:"
    INDEX 01 00:12:30
  TRACK 11 AUDIO
    TITLE "3:cjc044_3898"
    INDEX 01 00:13:20
  TRACK 12 AUDIO
    TITLE "0:"
    INDEX 01 00:14:33
  TRACK 13 AUDIO
    TITLE "4:cjc044_3899"
    INDEX 01 00:15:15
  TRACK 14 AUDIO
    TITLE "0:"
    INDEX 01 00:16:24
  TRACK 15 AUDIO
    TITLE "5:cjc044_3900"
    INDEX 01 00:16:71
  TRACK 16 AUDIO
    TITLE "0:"
    INDEX 01 00:20:20
  TRACK 17 AUDIO
    TITLE "2:cjc044_3901"
    INDEX 01 00:21:74
  TRACK 18 AUDIO
    TITLE "0:"
    INDEX 01 00:23:04
  TRACK 19 AUDIO
    TITLE "3:cjc044_3902"
    INDEX 01 00:23:65
  TRACK 20 AUDIO
    TITLE "0:"
    INDEX 01 00:25:09
  TRACK 21 AUDIO
    TITLE "4:cjc044_3903"
    INDEX 01 00:25:70
  TRACK 22 AUDIO
    TITLE "0:"
    INDEX 01 00:27:00
  TRACK 23 AUDIO
    TITLE "5:cjc044_3904"
    INDEX 01 00:27:65
  TRACK 24 AUDIO
    TITLE "0:"
    INDEX 01 00:30:59
  TRACK 25 AUDIO
    TITLE "2:cjc044_3905"
    INDEX 01 00:32:48
  TRACK 26 AUDIO
    TITLE "0:"
    INDEX 01 00:33:50
  TRACK 27 AUDIO
    TITLE "3:cjc044_3906"
    INDEX 01 00:34:40
  TRACK 28 AUDIO
    TITLE "0:"
    INDEX 01 00:35:51
  TRACK 29 AUDIO
    TITLE "4:cjc044_3907"
    INDEX 01 00:36:40
  TRACK 30 AUDIO
    TITLE "0:"
    INDEX 01 00:37:42
  TRACK 31 AUDIO
    TITLE "5:cjc044_3908"
    INDEX 01 00:38:30
  TRACK 32 AUDIO
    TITLE "0:"
    INDEX 01 00:41:42
  TRACK 33 AUDIO
    TITLE "2:cjc044_3909"
    INDEX 01 00:43:21
  TRACK 34 AUDIO
    TITLE "0:"
    INDEX 01 00:44:30
  TRACK 35 AUDIO
    TITLE "3:cjc044_3910"
    INDEX 01 00:45:14
  TRACK 36 AUDIO
    TITLE "0:"
    INDEX 01 00:46:00
  TRACK 37 AUDIO
    TITLE "4:cjc044_3911"
    INDEX 01 00:46:60
  TRACK 38 AUDIO
    TITLE "0:"
    INDEX 01 00:47:68
  TRACK 39 AUDIO
    TITLE "5:cjc044_3912"
    INDEX 01 00:48:55
  TRACK 40 AUDIO
    TITLE "0:"
    INDEX 01 00:52:06
  TRACK 41 AUDIO
    TITLE "2:cjc044_3913"
    INDEX 01 00:53:66
  TRACK 42 AUDIO
    TITLE "0:"
    INDEX 01 00:54:74
  TRACK 43 AUDIO
    TITLE "3:cjc044_3914"
    INDEX 01 00:55:57
  TRACK 44 AUDIO
    TITLE "0:"
    INDEX 01 00:57:54
  TRACK 45 AUDIO
    TITLE "4:cjc044_3915"
    INDEX 01 00:58:40
  TRACK 46 AUDIO
    TITLE "0:"
    INDEX 01 00:59:51
  TRACK 47 AUDIO
    TITLE "5:cjc044_3916"
    INDEX 01 01:00:25
  TRACK 48 AUDIO
    TITLE "0:"
    INDEX 01 01:04:00
  TRACK 49 AUDIO
    TITLE "2:cjc044_3917"
    INDEX 01 01:05:60
  TRACK 50 AUDIO
    TITLE "0:"
    INDEX 01 01:06:69
  TRACK 51 AUDIO
    TITLE "3:cjc044_3918"
    INDEX 01 01:07:55
  TRACK 52 AUDIO
    TITLE "0:"
    INDEX 01 01:09:03
  TRACK 53 AUDIO
    TITLE "4:cjc044_3919"
    INDEX 01 01:09:61
  TRACK 54 AUDIO
    TITLE "0:"
    INDEX 01 01:10:71
  TRACK 55 AUDIO
    TITLE "5:cjc044_3920"
    INDEX 01 01:11:51
  TRACK 56 AUDIO
    TITLE "0:"
    INDEX 01 01:15:27
  TRACK 57 AUDIO
    TITLE "2:cjc044_3921"
    INDEX 01 01:17:14
  TRACK 58 AUDIO
    TITLE "0:"
    INDEX 01 01:18:15
  TRACK 59 AUDIO
    TITLE "3:cjc044_3922"
    INDEX 01 01:18:74
  TRACK 60 AUDIO
    TITLE "0:"
    INDEX 01 01:19:66
  TRACK 61 AUDIO
    TITLE "4:cjc044_3923"
    INDEX 01 01:20:49
  TRACK 62 AUDIO
    TITLE "0:"
    INDEX 01 01:21:47
  TRACK 63 AUDIO
    TITLE "5:cjc044_3924"
    INDEX 01 01:22:25
  TRACK 64 AUDIO
    TITLE "0:"
    INDEX 01 01:25:09
  TRACK 65 AUDIO
    TITLE "2:cjc044_3925"
    INDEX 01 01:26:64
  TRACK 66 AUDIO
    TITLE "0:"
    INDEX 01 01:27:69
  TRACK 67 AUDIO
    TITLE "3:cjc044_3926"
    INDEX 01 01:28:51
  TRACK 68 AUDIO
    TITLE "0:"
    INDEX 01 01:29:66
  TRACK 69 AUDIO
    TITLE "4:cjc044_3927"
    INDEX 01 01:30:56
  TRACK 70 AUDIO
    TITLE "0:"
    INDEX 01 01:31:59
  TRACK 71 AUDIO
    TITLE "5:cjc044_3928"
    INDEX 01 01:32:49
  TRACK 72 AUDIO
    TITLE "0:"
    INDEX 01 01:36:54
